<?xml version="1.0" standalone="no"?>
<!DOCTYPE svg PUBLIC "-//W3C//DTD SVG 20010904//EN"
 "http://www.w3.org/TR/2001/REC-SVG-20010904/DTD/svg10.dtd">
<svg version="1.0" xmlns="http://www.w3.org/2000/svg"
 width="1600.000000pt" height="1295.000000pt" viewBox="0 0 1600.000000 1295.000000"
 preserveAspectRatio="xMidYMid meet">

<g transform="translate(0.000000,1295.000000) scale(0.100000,-0.100000)"
fill="#000000" stroke="none">
<path d="M6655 8744 c-103 -28 -148 -51 -206 -106 -45 -44 -99 -136 -99 -170
0 -10 -7 -35 -15 -56 -13 -33 -16 -210 -18 -1412 -3 -1455 -3 -1459 -50 -1610
-37 -121 -113 -197 -215 -216 -64 -12 -189 36 -318 122 -127 84 -200 99 -319
69 -121 -32 -203 -101 -261 -220 -28 -57 -29 -66 -29 -195 l0 -135 42 -86 c45
-90 111 -166 207 -239 108 -82 307 -156 484 -182 100 -15 310 -17 427 -4 184
20 357 109 510 261 83 83 96 101 157 225 37 74 77 167 88 205 12 39 28 88 35
110 7 22 22 85 32 140 17 94 18 191 18 1620 l0 1520 -29 75 c-16 41 -39 93
-52 116 -31 53 -112 118 -182 145 -56 21 -167 33 -207 23z"/>
<path d="M7790 6869 c0 -5 5 -7 10 -4 6 3 10 8 10 11 0 2 -4 4 -10 4 -5 0 -10
-5 -10 -11z"/>
<path d="M7550 6479 c0 -5 5 -7 10 -4 6 3 10 8 10 11 0 2 -4 4 -10 4 -5 0 -10
-5 -10 -11z"/>
<path d="M8530 5251 c0 -6 4 -13 10 -16 6 -3 7 1 4 9 -7 18 -14 21 -14 7z"/>
<path d="M9090 5160 c-13 -8 -12 -10 3 -10 9 0 17 5 17 10 0 12 -1 12 -20 0z"/>
<path d="M9735 4370 c-3 -5 -1 -10 4 -10 6 0 11 5 11 10 0 6 -2 10 -4 10 -3 0
-8 -4 -11 -10z"/>
</g>
</svg>
